# xmcd CD database file
#
# Track frame offsets:
#	150
#	38465
#	79400
#	110290
#	143330
#	167855
#	200210
#	220745
#	244115
#	285155
#
# Disc length: 4071 seconds
#
# Revision: 0
# Processed by: cddbd v1.4PL0 Copyright (c) Steve Scherf et al.
# Submitted via: CDex 1.50beta8
#
DISCID=830fe50a
DTITLE=Igor Butman - Nostalgie
DYEAR=1997
DGENRE=Jazz
TTITLE0=Nostalgie
TTITLE1=Valtz for Oksana
TTITLE2=Menina Moco
TTITLE3=Callahan Tunnel
TTITLE4=Nutville
TTITLE5=When the saints...
TTITLE6=Wrong Thoughts
TTITLE7=Turns of love
TTITLE8=Autumn leaves
TTITLE9=Vanka-Vstanka
EXTD=YEAR: 1997
EXTT0=
EXTT1=
EXTT2=
EXTT3=
EXTT4=
EXTT5=
EXTT6=
EXTT7=
EXTT8=
EXTT9=
PLAYORDER=
